<svg aria-hidden="true" style="position: absolute; width: 0; height: 0; overflow: hidden;" version="1.1" xmlns="http://www.w3.org/2000/svg" xmlns:xlink="http://www.w3.org/1999/xlink">
<defs>
<symbol id="icon-information" viewBox="0 0 32 32">
<path d="M14.667 2c0-1.104 0.896-2 2-2s2 0.896 2 2-0.896 2-2 2-2-0.896-2-2zM18.667 28v-16.667c0-2.573-2.093-4.667-4.667-4.667h-4.667v4h4.667c0.368 0 0.667 0.299 0.667 0.667v16.667h-5.333v4h14.667v-4h-5.333z"></path>
</symbol>
<symbol id="icon-info" viewBox="0 0 32 32">
<path d="M16 32c-8.837 0-16-7.163-16-16s7.163-16 16-16c8.837 0 16 7.163 16 16v0c-0.010 8.833-7.167 15.99-15.999 16h-0.001zM16 2.667c-7.364 0-13.333 5.97-13.333 13.333s5.97 13.333 13.333 13.333c7.364 0 13.333-5.97 13.333-13.333v0c-0.008-7.36-5.973-13.325-13.333-13.333h-0.001z"></path>
<path d="M18.667 25.333h-2.667v-9.333h-2.667v-2.667h2.667c1.473 0 2.667 1.194 2.667 2.667v0z"></path>
<path d="M18 8.667c0 1.105-0.895 2-2 2s-2-0.895-2-2c0-1.105 0.895-2 2-2s2 0.895 2 2z"></path>
</symbol>
<symbol id="icon-at" viewBox="0 0 32 32">
<path d="M16 0c-8.836 0.001-15.998 7.164-15.998 16s7.163 16 16 16c3.556 0 6.842-1.16 9.498-3.123l-0.044 0.031-1.579-2.149c-2.177 1.609-4.914 2.576-7.877 2.576-7.364 0-13.333-5.97-13.333-13.333s5.97-13.333 13.333-13.333c7.363 0 13.333 5.969 13.333 13.332v2.667c0 1.473-1.194 2.667-2.667 2.667s-2.667-1.194-2.667-2.667v0-2.667c0-0.008 0-0.018 0-0.028 0-4.434-3.594-8.028-8.028-8.028s-8.028 3.594-8.028 8.028c0 4.434 3.594 8.028 8.028 8.028 2.412 0 4.575-1.063 6.047-2.747l0.008-0.009c0.922 1.655 2.662 2.757 4.659 2.757 2.935 0 5.315-2.379 5.315-5.315 0-0.007 0-0.014-0-0.021v0.001-2.667c-0.010-8.833-7.167-15.99-15.999-16h-0.001zM16 21.333c-2.946 0-5.333-2.388-5.333-5.333s2.388-5.333 5.333-5.333c2.946 0 5.333 2.388 5.333 5.333v0c0 2.946-2.388 5.333-5.333 5.333v0z"></path>
</symbol>
<symbol id="icon-land-layer-location" viewBox="0 0 32 32">
<path d="M13.652 19.709c0.649 0.636 1.504 0.952 2.356 0.952 0.843 0 1.683-0.311 2.315-0.929l4.276-3.799c1.763-1.763 2.735-4.107 2.735-6.6s-0.972-4.836-2.735-6.6c-1.761-1.763-4.105-2.733-6.599-2.733s-4.837 0.971-6.6 2.733c-3.639 3.639-3.639 9.56 0.028 13.227l4.224 3.749zM10.343 3.676c1.512-1.511 3.521-2.343 5.657-2.343s4.145 0.832 5.656 2.343c1.512 1.511 2.344 3.52 2.344 5.657s-0.832 4.145-2.315 5.629l-4.271 3.793c-0.779 0.764-2.048 0.76-2.853-0.023l-4.219-3.744c-3.119-3.119-3.119-8.195 0-11.313zM16 13.307c2.197 0 3.987-1.788 3.987-3.987s-1.789-3.987-3.987-3.987-3.987 1.788-3.987 3.987 1.789 3.987 3.987 3.987zM16 6.667c1.464 0 2.653 1.191 2.653 2.653s-1.191 2.653-2.653 2.653-2.653-1.191-2.653-2.653 1.191-2.653 2.653-2.653zM32 22.688c0 0.235-0.123 0.452-0.324 0.572l-13.747 8.248c-0.595 0.357-1.261 0.536-1.929 0.536s-1.335-0.18-1.929-0.536l-13.747-8.249c-0.201-0.12-0.324-0.337-0.324-0.572s0.123-0.452 0.324-0.572l6.667-4c0.312-0.191 0.725-0.087 0.915 0.229 0.191 0.315 0.087 0.725-0.229 0.915l-5.713 3.428 12.793 7.676c0.768 0.461 1.721 0.461 2.489 0l12.793-7.676-5.748-3.449c-0.316-0.189-0.419-0.599-0.229-0.915 0.191-0.316 0.603-0.419 0.915-0.229l6.7 4.021c0.201 0.121 0.324 0.337 0.324 0.572z"></path>
</symbol>
<symbol id="icon-mobile-notch" viewBox="0 0 32 32">
<path d="M20.667 0h-9.333c-3.308 0-6 2.692-6 6v20c0 3.308 2.692 6 6 6h9.333c3.308 0 6-2.692 6-6v-20c0-3.308-2.692-6-6-6zM19.743 1.333l-0.433 1.299c-0.273 0.819-1.036 1.368-1.897 1.368h-2.823c-0.861 0-1.624-0.549-1.897-1.368l-0.433-1.299h7.484zM25.333 26c0 2.573-2.093 4.667-4.667 4.667h-9.333c-2.573 0-4.667-2.093-4.667-4.667v-20c0-2.413 1.849-4.383 4.201-4.62l0.557 1.673c0.455 1.363 1.725 2.279 3.163 2.279h2.823c1.437 0 2.708-0.916 3.163-2.279l0.557-1.673c2.352 0.237 4.201 2.205 4.201 4.62v20z"></path>
<path d="M18 26.667h-4c-0.368 0-0.667 0.299-0.667 0.667s0.299 0.667 0.667 0.667h4c0.368 0 0.667-0.299 0.667-0.667s-0.299-0.667-0.667-0.667z"></path>
</symbol>
<symbol id="icon-house-key" viewBox="0 0 32 32">
<path d="M10.667 30c0 1.105-0.895 2-2 2h-1.333c-4.044 0-7.333-3.289-7.333-7.333v-11.435c0-2.441 1.208-4.713 3.232-6.079l8.801-5.94c2.409-1.627 5.523-1.628 7.933 0l8.801 5.94c0.321 0.217 0.627 0.459 0.905 0.72 0.807 0.755 0.848 2.020 0.093 2.827-0.753 0.805-2.020 0.848-2.827 0.093-0.127-0.119-0.264-0.227-0.409-0.325l-8.801-5.94c-1.052-0.709-2.409-0.708-3.457 0l-8.803 5.94c-0.92 0.621-1.469 1.655-1.469 2.764v11.435c0 1.837 1.496 3.333 3.333 3.333h1.333c1.105 0 2 0.895 2 2zM31.893 21.213c-0.448 2.547-2.432 4.653-4.947 5.26-1.533 0.369-2.993 0.191-4.257-0.356l-5.297 5.297c-0.375 0.375-0.884 0.585-1.413 0.585h-1.247c-0.772 0-1.397-0.625-1.397-1.397v-1.515c0-0.601 0.487-1.088 1.088-1.088h1.551v-1.579c0-0.601 0.487-1.088 1.088-1.088h1.579v-2c0-0.667 0.42-1.168 0.42-1.168-0.487-1.411-0.629-2.984 0.228-4.753 1.216-2.511 3.675-4.236 6.46-4.065 3.881 0.236 6.865 3.793 6.148 7.867zM28.667 18.667c0-1.104-0.896-2-2-2s-2 0.896-2 2 0.896 2 2 2 2-0.896 2-2z"></path>
</symbol>
<symbol id="icon-key" viewBox="0 0 32 32">
<path d="M8.667 21.333c1.105 0 2 0.895 2 2s-0.895 2-2 2c-1.105 0-2-0.895-2-2v0c0-1.105 0.895-2 2-2v0zM12.667 31.815c3.803-0.728 6.842-3.41 8.064-6.94l0.022-0.074c0.362-1.014 0.572-2.183 0.572-3.401 0-0.612-0.053-1.211-0.154-1.794l0.009 0.062 0.908-0.919c0.358-0.361 0.579-0.858 0.579-1.407 0-0.003 0-0.005-0-0.008v0-2.667h0.667c1.841 0 3.333-1.492 3.333-3.333v0-0.667h1.668c1.371-0 2.55-0.825 3.068-2.005l0.008-0.021c0.372-0.833 0.588-1.805 0.588-2.828 0-0.241-0.012-0.48-0.036-0.715l0.002 0.030c-0.328-2.897-2.764-5.127-5.722-5.127-0.025 0-0.050 0-0.076 0.001l0.004-0c-0.006-0-0.013-0-0.019-0-2.020 0-3.848 0.822-5.168 2.149l-8.667 8.667c-0.514-0.090-1.106-0.142-1.71-0.142-1.222 0-2.394 0.211-3.482 0.599l0.072-0.023c-4.218 1.487-7.186 5.438-7.186 10.083 0 5.891 4.776 10.667 10.667 10.667 0.008 0 0.015 0 0.023-0h-0.001c0.697-0.002 1.376-0.069 2.035-0.196l-0.068 0.011zM12.42 14.933c0.161 0.046 0.345 0.073 0.536 0.073 0.553 0 1.053-0.224 1.415-0.586v0l9.441-9.44c0.601-0.605 1.433-0.98 2.354-0.98 0.002 0 0.005 0 0.007 0h-0c0.013-0 0.028-0.001 0.043-0.001 0.898 0 1.641 0.661 1.77 1.523l0.001 0.010c0.010 0.089 0.015 0.193 0.015 0.298 0 0.298-0.045 0.586-0.127 0.857l0.005-0.021h-1.879c-1.841 0-3.333 1.492-3.333 3.333v0 0.667h-0.667c-1.841 0-3.333 1.492-3.333 3.333v0 2.512l-1.096 1.108c-0.357 0.361-0.578 0.858-0.578 1.406 0 0.192 0.027 0.377 0.077 0.553l-0.003-0.014c0.162 0.543 0.255 1.167 0.255 1.813 0 0.762-0.13 1.493-0.368 2.173l0.014-0.046c-0.927 2.64-3.399 4.499-6.304 4.499-3.682 0-6.667-2.985-6.667-6.667 0-2.903 1.855-5.372 4.444-6.287l0.047-0.014c0.633-0.226 1.362-0.356 2.122-0.357h0c0.645 0.003 1.268 0.095 1.857 0.267l-0.048-0.012z"></path>
</symbol>
<symbol id="icon-map" viewBox="0 0 32 32">
<path d="M27.573 1.556l-0.028-0.009-3.62-1.2c-0.629-0.216-1.354-0.341-2.108-0.341-0.626 0-1.232 0.086-1.806 0.247l0.047-0.011-7.435 2.159c-0.31 0.085-0.666 0.135-1.033 0.135-0.616 0-1.2-0.138-1.722-0.385l0.025 0.010-0.667-0.309c-0.756-0.323-1.636-0.511-2.56-0.511-3.68 0-6.663 2.981-6.667 6.66v16.1c0.006 3.015 2.007 5.56 4.753 6.388l0.047 0.012 3.825 1.2c0.591 0.19 1.27 0.3 1.976 0.3 0.006 0 0.012 0 0.019-0h-0.001c0.023 0 0.050 0.001 0.078 0.001 0.607 0 1.193-0.088 1.747-0.253l-0.043 0.011 7.733-2.133c0.314-0.089 0.675-0.139 1.047-0.139 0.395 0 0.777 0.057 1.137 0.164l-0.028-0.007 3.124 0.901c0.376 0.095 0.808 0.149 1.253 0.149 2.945 0 5.333-2.387 5.333-5.332v-17.527c-0.004-2.877-1.827-5.328-4.38-6.264l-0.046-0.015zM5.568 27.945c-1.685-0.499-2.895-2.030-2.901-3.845v-16.101c-0-0.011-0-0.025-0-0.039 0-1.372 0.702-2.581 1.767-3.286l0.015-0.009c0.622-0.418 1.387-0.667 2.211-0.667 0.003 0 0.005 0 0.008 0h-0c0.535 0 1.045 0.109 1.508 0.306l-0.025-0.010s0.993 0.425 1.183 0.493v24.333zM12 29.103v-23.931c0.489-0.027 0.948-0.1 1.389-0.217l-0.047 0.011 6.659-1.935v23.903zM29.333 25.361c0 0.001 0 0.001 0 0.002 0 1.473-1.194 2.667-2.667 2.667-0.205 0-0.404-0.023-0.595-0.067l0.018 0.003-3.423-0.964v-24.236l4.024 1.305c1.553 0.574 2.64 2.041 2.643 3.762v0z"></path>
</symbol>
<symbol id="icon-map-marker" viewBox="0 0 32 32">
<path d="M13.333 10.667c0-1.473 1.194-2.667 2.667-2.667s2.667 1.194 2.667 2.667c0 1.473-1.194 2.667-2.667 2.667v0c-1.473 0-2.667-1.194-2.667-2.667v0zM32 17.832v6.865c0 0.014 0 0.031 0 0.048 0 1.922-0.901 3.633-2.304 4.734l-0.013 0.010c-0.953 0.753-2.172 1.208-3.497 1.208-0.498 0-0.981-0.064-1.441-0.185l0.039 0.009c-0.059-0.015-3.104-1.091-3.104-1.091-0.222-0.063-0.476-0.099-0.739-0.099-0.282 0-0.554 0.041-0.811 0.119l0.020-0.005-7.333 2.275c-0.588 0.177-1.263 0.28-1.963 0.28h-0c-0.002 0-0.004 0-0.006 0-0.761 0-1.492-0.125-2.175-0.355l0.048 0.014-3.652-1.2c-2.966-0.982-5.068-3.73-5.068-6.969 0-0.019 0-0.039 0-0.058l-0 0.003v-5.435c-0-0.018-0-0.040-0-0.062 0-2.092 0.873-3.98 2.273-5.32l0.003-0.003c0.839-0.785 1.875-1.37 3.026-1.672l0.049-0.011c-0.001-0.060-0.002-0.132-0.002-0.203 0-2.948 1.184-5.62 3.102-7.566l-0.001 0.001c1.922-1.954 4.595-3.166 7.551-3.166s5.628 1.211 7.549 3.164l0.001 0.001c1.912 1.938 3.095 4.598 3.105 7.534v0.002l0.621 0.217c2.786 1.089 4.723 3.753 4.723 6.869 0 0.015-0 0.031-0 0.046v-0.002zM11.295 15.573l4.391 4.293c0.082 0.083 0.196 0.135 0.323 0.135s0.24-0.052 0.323-0.135l0-0 4.4-4.313c1.201-1.232 1.942-2.918 1.942-4.777 0-1.87-0.75-3.564-1.965-4.8l0.001 0.001c-1.197-1.219-2.863-1.975-4.705-1.975s-3.508 0.756-4.704 1.974l-0.001 0.001c-1.213 1.235-1.962 2.93-1.962 4.8 0 1.868 0.747 3.561 1.959 4.797l-0.001-0.001zM28 17.831c0-0.018 0.001-0.038 0.001-0.059 0-1.385-0.845-2.573-2.048-3.076l-0.022-0.008c-0.559 1.441-1.367 2.673-2.381 3.7l0.001-0.001-4.419 4.336c-0.801 0.795-1.904 1.286-3.121 1.286s-2.321-0.491-3.122-1.286l0 0-4.416-4.312c-0.983-0.997-1.775-2.184-2.314-3.502l-0.026-0.072c-0.424 0.158-0.787 0.388-1.092 0.679l0.001-0.001c-0.643 0.618-1.043 1.486-1.043 2.447 0 0.014 0 0.028 0 0.043l-0-0.002v5.433c-0 0.020-0.001 0.043-0.001 0.066 0 1.456 0.939 2.693 2.244 3.139l0.023 0.007 3.701 1.211c0.268 0.091 0.577 0.144 0.898 0.144 0.284 0 0.559-0.041 0.819-0.118l-0.020 0.005 7.348-2.277c0.576-0.174 1.239-0.275 1.924-0.275 0.71 0 1.396 0.108 2.040 0.308l-0.049-0.013 2.916 1.037c0.102 0.022 0.219 0.035 0.338 0.035 0.397 0 0.762-0.138 1.049-0.369l-0.003 0.003c0.472-0.377 0.772-0.954 0.772-1.6 0-0.014-0-0.027-0-0.041l0 0.002z"></path>
</symbol>
<symbol id="icon-registration-paper" viewBox="0 0 32 32">
<path d="M28 22.667h-1.333v-1.333c0-0.736-0.596-1.333-1.333-1.333s-1.333 0.597-1.333 1.333v1.333h-6.667c-2.205 0-4 1.795-4 4v0.667c0 1.103-0.897 2-2 2s-2-0.897-2-2v-22.667c0-0.719-0.177-1.392-0.468-2h3.135c0.737 0 1.333-0.597 1.333-1.333s-0.596-1.333-1.333-1.333h-7.333c-2.573 0-4.667 2.093-4.667 4.667v0.667c0 2.205 1.795 4 4 4h2.667v18c0 2.572 2.092 4.665 4.664 4.667h16.003c2.573 0 4.667-2.093 4.667-4.667v-0.667c0-2.205-1.795-4-4-4zM6.667 6.667h-2.667c-0.736 0-1.333-0.599-1.333-1.333v-0.667c0-1.103 0.897-2 2-2s2 0.897 2 2v2zM29.333 27.333c0 1.103-0.897 2-2 2h-11.784c0.289-0.607 0.451-1.284 0.451-2v-0.667c0-0.735 0.597-1.333 1.333-1.333h10.667c0.736 0 1.333 0.599 1.333 1.333v0.667zM22.667 18.667c5.145 0 9.333-4.187 9.333-9.333s-4.188-9.333-9.333-9.333-9.333 4.187-9.333 9.333 4.188 9.333 9.333 9.333zM22.667 2.667c3.676 0 6.667 2.991 6.667 6.667s-2.991 6.667-6.667 6.667-6.667-2.991-6.667-6.667 2.991-6.667 6.667-6.667zM18.024 9.067c0.515-0.527 1.359-0.533 1.885-0.020l1.508 1.477c0.192 0.188 0.505 0.185 0.696 0l2.964-2.845c0.529-0.509 1.376-0.492 1.885 0.039s0.492 1.375-0.039 1.885l-2.951 2.832c-0.604 0.596-1.403 0.895-2.204 0.895s-1.605-0.299-2.219-0.899l-1.508-1.477c-0.527-0.516-0.533-1.36-0.019-1.885z"></path>
</symbol>
<symbol id="icon-scroll-document-story" viewBox="0 0 32 32">
<path d="M28 22.667h-1.333v-5.333c0-0.736-0.596-1.333-1.333-1.333s-1.333 0.597-1.333 1.333v5.333h-6.667c-2.205 0-4 1.795-4 4v0.667c0 1.103-0.897 2-2 2s-2-0.897-2-2v-22.667c0-0.719-0.177-1.392-0.468-2h7.135c0.737 0 1.333-0.597 1.333-1.333s-0.596-1.333-1.333-1.333h-11.333c-2.573 0-4.667 2.093-4.667 4.667v0.667c0 2.205 1.795 4 4 4h2.667v18c0 2.572 2.092 4.665 4.664 4.667h16.003c2.573 0 4.667-2.093 4.667-4.667v-0.667c0-2.205-1.795-4-4-4zM6.667 6.667h-2.667c-0.736 0-1.333-0.599-1.333-1.333v-0.667c0-1.103 0.897-2 2-2s2 0.897 2 2v2zM29.333 27.333c0 1.103-0.897 2-2 2h-11.784c0.289-0.607 0.451-1.284 0.451-2v-0.667c0-0.735 0.597-1.333 1.333-1.333h10.667c0.736 0 1.333 0.599 1.333 1.333v0.667zM13.219 17.059c-0.225 0.809 0.391 1.608 1.231 1.608v0c0.572 0 1.073-0.381 1.224-0.933 0.192-0.7 0.415-1.401 0.683-2.101 3.659-0.519 6.68-1.759 9.208-3.801 2.661-2.151 5.171-5.412 6.243-8.115 0.357-0.9 0.216-1.895-0.376-2.663-0.591-0.765-1.524-1.152-2.472-1.035-1.327 0.163-5.917 0.9-9.261 3.601-3.739 3.019-5.088 8.173-5.512 10.38-0.331 0.839-0.74 2.24-0.968 3.057zM21.373 5.696c2.221-1.792 5.541-2.74 7.956-2.96-0.739 1.861-2.756 4.855-5.439 7.023-1.305 1.053-2.788 1.847-4.455 2.417 1.469-1.627 3.189-3.536 4.485-4.999 0.225-0.255-0.075-0.633-0.372-0.469-2.156 1.184-3.996 2.521-5.544 3.8 0.716-1.716 1.78-3.529 3.368-4.812z"></path>
</symbol>
<symbol id="icon-phone" viewBox="0 0 32 32">
<path d="M22 20c-2 2-2 4-4 4s-4-2-6-4-4-4-4-6 2-2 4-4-4-8-6-8-6 6-6 6c0 4 4.109 12.109 8 16s12 8 16 8c0 0 6-4 6-6s-6-8-8-6z"></path>
</symbol>
</defs>
</svg>

